<?xml version="1.0" standalone="no"?>
<!DOCTYPE svg PUBLIC "-//W3C//DTD SVG 20010904//EN"
 "http://www.w3.org/TR/2001/REC-SVG-20010904/DTD/svg10.dtd">
<svg version="1.0" xmlns="http://www.w3.org/2000/svg"
 width="920.000000pt" height="500.000000pt" viewBox="0 0 920.000000 500.000000"
 preserveAspectRatio="xMidYMid meet">

<g transform="translate(0.000000,500.000000) scale(0.100000,-0.100000)"
fill="#000000" stroke="none">
<path d="M4286 4944 c-829 -106 -1560 -642 -1918 -1404 -60 -126 -149 -388
-177 -521 -70 -326 -68 -731 4 -1052 32 -143 110 -374 169 -501 379 -817 1199
-1377 2084 -1423 l122 -6 0 1231 0 1232 -402 0 c-225 0 -432 -5 -468 -10 -235
-37 -403 -269 -361 -498 34 -187 176 -326 361 -355 l70 -11 0 -270 0 -269 -82
7 c-236 18 -465 129 -629 304 -449 476 -310 1243 278 1536 91 45 217 84 300
92 37 3 77 8 88 9 11 2 205 4 431 4 l412 1 5 203 c5 233 18 293 93 437 80 155
202 273 359 350 137 66 212 83 360 83 140 -1 233 -22 347 -78 163 -79 292
-208 372 -370 68 -136 81 -195 80 -365 0 -138 -1 -150 -32 -240 -43 -124 -98
-215 -185 -306 -115 -122 -243 -197 -401 -234 -65 -16 -117 -20 -268 -20
l-188 0 0 -1206 0 -1206 33 7 c17 4 79 21 137 37 599 171 1119 575 1441 1119
166 281 271 579 321 914 20 138 17 561 -5 700 -165 1025 -916 1823 -1925 2045
-225 49 -589 64 -826 34z"/>
<path d="M5309 3567 c-86 -24 -159 -95 -184 -179 -10 -36 -15 -96 -15 -202 l0
-151 177 5 c158 4 183 7 218 27 87 47 136 123 143 224 4 56 1 75 -20 120 -58
128 -190 192 -319 156z"/>
</g>
</svg>
